<mxfile host="65bd71144e">
    <diagram id="q7yzLcji8X_oZluLJt9G" name="Props Drilling">
        <mxGraphModel dx="1075" dy="492" grid="1" gridSize="10" guides="1" tooltips="1" connect="1" arrows="1" fold="1" page="1" pageScale="1" pageWidth="850" pageHeight="1100" math="0" shadow="0">
            <root>
                <mxCell id="0"/>
                <mxCell id="1" parent="0"/>
                <mxCell id="JT-jri5FY0mSZ1LvSIW6-11" value="" style="group" parent="1" vertex="1" connectable="0">
                    <mxGeometry x="210" y="220" width="430" height="370" as="geometry"/>
                </mxCell>
                <mxCell id="4" value="&lt;font style=&quot;font-size: 18px&quot;&gt;&lt;b&gt;Props Drilling&lt;/b&gt;&lt;/font&gt;" style="text;html=1;strokeColor=none;fillColor=none;align=center;verticalAlign=middle;whiteSpace=wrap;rounded=0;" parent="JT-jri5FY0mSZ1LvSIW6-11" vertex="1">
                    <mxGeometry x="125" width="170" height="40" as="geometry"/>
                </mxCell>
                <mxCell id="5" value="Component" style="rounded=1;whiteSpace=wrap;html=1;fontSize=18;" parent="JT-jri5FY0mSZ1LvSIW6-11" vertex="1">
                    <mxGeometry x="150" y="70" width="120" height="60" as="geometry"/>
                </mxCell>
                <mxCell id="6" value="Component" style="rounded=1;whiteSpace=wrap;html=1;fontSize=18;" parent="JT-jri5FY0mSZ1LvSIW6-11" vertex="1">
                    <mxGeometry x="150" y="190" width="120" height="60" as="geometry"/>
                </mxCell>
                <mxCell id="7" style="edgeStyle=none;html=1;entryX=0.5;entryY=0;entryDx=0;entryDy=0;fontSize=18;" parent="JT-jri5FY0mSZ1LvSIW6-11" source="5" target="6" edge="1">
                    <mxGeometry relative="1" as="geometry"/>
                </mxCell>
                <mxCell id="8" value="Component" style="rounded=1;whiteSpace=wrap;html=1;fontSize=18;" parent="JT-jri5FY0mSZ1LvSIW6-11" vertex="1">
                    <mxGeometry x="310" y="310" width="120" height="60" as="geometry"/>
                </mxCell>
                <mxCell id="9" style="edgeStyle=none;html=1;fontSize=18;entryX=0.5;entryY=0;entryDx=0;entryDy=0;" parent="JT-jri5FY0mSZ1LvSIW6-11" source="6" target="8" edge="1">
                    <mxGeometry relative="1" as="geometry">
                        <mxPoint x="390" y="220" as="targetPoint"/>
                        <Array as="points">
                            <mxPoint x="370" y="220"/>
                        </Array>
                    </mxGeometry>
                </mxCell>
                <mxCell id="10" value="Component" style="rounded=1;whiteSpace=wrap;html=1;fontSize=18;" parent="JT-jri5FY0mSZ1LvSIW6-11" vertex="1">
                    <mxGeometry y="310" width="120" height="60" as="geometry"/>
                </mxCell>
                <mxCell id="11" style="edgeStyle=none;html=1;entryX=0.452;entryY=0.019;entryDx=0;entryDy=0;entryPerimeter=0;fontSize=18;" parent="JT-jri5FY0mSZ1LvSIW6-11" source="6" target="10" edge="1">
                    <mxGeometry relative="1" as="geometry">
                        <Array as="points">
                            <mxPoint x="54" y="220"/>
                        </Array>
                    </mxGeometry>
                </mxCell>
                <mxCell id="iGTgO03z2BztebOAClHQ-11" value="&lt;font style=&quot;font-size: 14px&quot;&gt;props&lt;/font&gt;" style="text;html=1;strokeColor=none;fillColor=none;align=center;verticalAlign=middle;whiteSpace=wrap;rounded=0;" parent="JT-jri5FY0mSZ1LvSIW6-11" vertex="1">
                    <mxGeometry x="215" y="130" width="65" height="30" as="geometry"/>
                </mxCell>
                <mxCell id="iGTgO03z2BztebOAClHQ-12" value="&lt;font style=&quot;font-size: 14px&quot;&gt;props&lt;/font&gt;" style="text;html=1;strokeColor=none;fillColor=none;align=center;verticalAlign=middle;whiteSpace=wrap;rounded=0;" parent="JT-jri5FY0mSZ1LvSIW6-11" vertex="1">
                    <mxGeometry x="295" y="230" width="65" height="30" as="geometry"/>
                </mxCell>
                <mxCell id="iGTgO03z2BztebOAClHQ-13" value="&lt;font style=&quot;font-size: 14px&quot;&gt;props&lt;/font&gt;" style="text;html=1;strokeColor=none;fillColor=none;align=center;verticalAlign=middle;whiteSpace=wrap;rounded=0;" parent="JT-jri5FY0mSZ1LvSIW6-11" vertex="1">
                    <mxGeometry x="60" y="230" width="65" height="30" as="geometry"/>
                </mxCell>
            </root>
        </mxGraphModel>
    </diagram>
    <diagram name="State Management" id="8t_1OHwblr8OMsOQNYnS">
        <mxGraphModel dx="1075" dy="492" grid="1" gridSize="10" guides="1" tooltips="1" connect="1" arrows="1" fold="1" page="1" pageScale="1" pageWidth="850" pageHeight="1100" math="0" shadow="0">
            <root>
                <mxCell id="vyCbU-vuIrlbdeBc6m6Y-0"/>
                <mxCell id="vyCbU-vuIrlbdeBc6m6Y-1" parent="vyCbU-vuIrlbdeBc6m6Y-0"/>
                <mxCell id="vyCbU-vuIrlbdeBc6m6Y-2" value="&lt;font style=&quot;font-size: 18px&quot;&gt;&lt;b&gt;State Management&lt;/b&gt;&lt;/font&gt;" style="text;html=1;strokeColor=none;fillColor=none;align=center;verticalAlign=middle;whiteSpace=wrap;rounded=0;" parent="vyCbU-vuIrlbdeBc6m6Y-1" vertex="1">
                    <mxGeometry x="335" y="260" width="170" height="40" as="geometry"/>
                </mxCell>
                <mxCell id="vyCbU-vuIrlbdeBc6m6Y-3" style="edgeStyle=none;html=1;entryX=0.5;entryY=0;entryDx=0;entryDy=0;fontSize=18;" parent="vyCbU-vuIrlbdeBc6m6Y-1" source="vyCbU-vuIrlbdeBc6m6Y-4" target="vyCbU-vuIrlbdeBc6m6Y-7" edge="1">
                    <mxGeometry relative="1" as="geometry"/>
                </mxCell>
                <mxCell id="vyCbU-vuIrlbdeBc6m6Y-4" value="Redux" style="rounded=1;whiteSpace=wrap;html=1;fontSize=18;" parent="vyCbU-vuIrlbdeBc6m6Y-1" vertex="1">
                    <mxGeometry x="360" y="330" width="120" height="60" as="geometry"/>
                </mxCell>
                <mxCell id="vyCbU-vuIrlbdeBc6m6Y-5" style="edgeStyle=none;html=1;fontSize=18;entryX=0.5;entryY=0;entryDx=0;entryDy=0;" parent="vyCbU-vuIrlbdeBc6m6Y-1" target="vyCbU-vuIrlbdeBc6m6Y-8" edge="1">
                    <mxGeometry relative="1" as="geometry">
                        <mxPoint x="600" y="440" as="targetPoint"/>
                        <mxPoint x="420" y="440" as="sourcePoint"/>
                        <Array as="points">
                            <mxPoint x="580" y="440"/>
                        </Array>
                    </mxGeometry>
                </mxCell>
                <mxCell id="vyCbU-vuIrlbdeBc6m6Y-6" style="edgeStyle=none;html=1;entryX=0.452;entryY=0.019;entryDx=0;entryDy=0;entryPerimeter=0;fontSize=18;" parent="vyCbU-vuIrlbdeBc6m6Y-1" target="vyCbU-vuIrlbdeBc6m6Y-9" edge="1">
                    <mxGeometry relative="1" as="geometry">
                        <mxPoint x="430" y="440" as="sourcePoint"/>
                        <Array as="points">
                            <mxPoint x="254" y="440"/>
                        </Array>
                    </mxGeometry>
                </mxCell>
                <mxCell id="vyCbU-vuIrlbdeBc6m6Y-7" value="Component" style="rounded=1;whiteSpace=wrap;html=1;fontSize=18;" parent="vyCbU-vuIrlbdeBc6m6Y-1" vertex="1">
                    <mxGeometry x="360" y="600" width="120" height="60" as="geometry"/>
                </mxCell>
                <mxCell id="vyCbU-vuIrlbdeBc6m6Y-8" value="Component" style="rounded=1;whiteSpace=wrap;html=1;fontSize=18;" parent="vyCbU-vuIrlbdeBc6m6Y-1" vertex="1">
                    <mxGeometry x="520" y="530" width="120" height="60" as="geometry"/>
                </mxCell>
                <mxCell id="vyCbU-vuIrlbdeBc6m6Y-9" value="Component" style="rounded=1;whiteSpace=wrap;html=1;fontSize=18;" parent="vyCbU-vuIrlbdeBc6m6Y-1" vertex="1">
                    <mxGeometry x="200" y="530" width="120" height="60" as="geometry"/>
                </mxCell>
            </root>
        </mxGraphModel>
    </diagram>
    <diagram name="All" id="xEl1tPG7Ef54Eu7crx2p">
        <mxGraphModel dx="1075" dy="492" grid="1" gridSize="10" guides="1" tooltips="1" connect="1" arrows="1" fold="1" page="1" pageScale="1" pageWidth="850" pageHeight="1100" math="0" shadow="0">
            <root>
                <mxCell id="wSnOHmd4NZO43CEivaGH-0"/>
                <mxCell id="wSnOHmd4NZO43CEivaGH-1" parent="wSnOHmd4NZO43CEivaGH-0"/>
                <mxCell id="wSnOHmd4NZO43CEivaGH-10" value="" style="group" parent="wSnOHmd4NZO43CEivaGH-1" vertex="1" connectable="0">
                    <mxGeometry x="480" y="270" width="322.3" height="293" as="geometry"/>
                </mxCell>
                <mxCell id="wSnOHmd4NZO43CEivaGH-8" value="&lt;span style=&quot;font-size: 14px&quot;&gt;Component&lt;/span&gt;" style="rounded=1;whiteSpace=wrap;html=1;fontSize=18;" parent="wSnOHmd4NZO43CEivaGH-10" vertex="1">
                    <mxGeometry x="234.40000000000003" y="197.775" width="87.9" height="43.95" as="geometry"/>
                </mxCell>
                <mxCell id="TXak43xirqwGPLJnymRw-12" value="&lt;font style=&quot;font-size: 18px&quot;&gt;&lt;b&gt;State Management&lt;/b&gt;&lt;/font&gt;" style="text;html=1;strokeColor=none;fillColor=none;align=center;verticalAlign=middle;whiteSpace=wrap;rounded=0;" parent="wSnOHmd4NZO43CEivaGH-10" vertex="1">
                    <mxGeometry x="70" width="190" height="31.78" as="geometry"/>
                </mxCell>
                <mxCell id="TXak43xirqwGPLJnymRw-0" value="" style="group" parent="wSnOHmd4NZO43CEivaGH-1" vertex="1" connectable="0">
                    <mxGeometry x="40" y="260" width="341.68" height="294" as="geometry"/>
                </mxCell>
                <mxCell id="TXak43xirqwGPLJnymRw-1" value="&lt;font style=&quot;font-size: 18px&quot;&gt;&lt;b&gt;Props Drilling&lt;/b&gt;&lt;/font&gt;" style="text;html=1;strokeColor=none;fillColor=none;align=center;verticalAlign=middle;whiteSpace=wrap;rounded=0;" parent="TXak43xirqwGPLJnymRw-0" vertex="1">
                    <mxGeometry x="99.32558139534885" width="135.08279069767443" height="31.783783783783782" as="geometry"/>
                </mxCell>
                <mxCell id="TXak43xirqwGPLJnymRw-2" value="&lt;font style=&quot;font-size: 14px&quot;&gt;Component&lt;/font&gt;" style="rounded=1;whiteSpace=wrap;html=1;fontSize=18;" parent="TXak43xirqwGPLJnymRw-0" vertex="1">
                    <mxGeometry x="119.19069767441862" y="55.62162162162162" width="95.35255813953489" height="47.67567567567568" as="geometry"/>
                </mxCell>
                <mxCell id="TXak43xirqwGPLJnymRw-3" value="&lt;span style=&quot;font-size: 14px&quot;&gt;Component&lt;/span&gt;" style="rounded=1;whiteSpace=wrap;html=1;fontSize=18;" parent="TXak43xirqwGPLJnymRw-0" vertex="1">
                    <mxGeometry x="119.19069767441862" y="150.97297297297297" width="95.35255813953489" height="47.67567567567568" as="geometry"/>
                </mxCell>
                <mxCell id="TXak43xirqwGPLJnymRw-4" style="edgeStyle=none;html=1;entryX=0.5;entryY=0;entryDx=0;entryDy=0;fontSize=18;" parent="TXak43xirqwGPLJnymRw-0" source="TXak43xirqwGPLJnymRw-2" target="TXak43xirqwGPLJnymRw-3" edge="1">
                    <mxGeometry relative="1" as="geometry"/>
                </mxCell>
                <mxCell id="TXak43xirqwGPLJnymRw-5" value="&lt;span style=&quot;font-size: 14px&quot;&gt;Component&lt;/span&gt;" style="rounded=1;whiteSpace=wrap;html=1;fontSize=18;" parent="TXak43xirqwGPLJnymRw-0" vertex="1">
                    <mxGeometry x="246.32744186046511" y="246.3243243243243" width="95.35255813953489" height="47.67567567567568" as="geometry"/>
                </mxCell>
                <mxCell id="TXak43xirqwGPLJnymRw-6" style="edgeStyle=none;html=1;fontSize=18;entryX=0.5;entryY=0;entryDx=0;entryDy=0;" parent="TXak43xirqwGPLJnymRw-0" source="TXak43xirqwGPLJnymRw-3" target="TXak43xirqwGPLJnymRw-5" edge="1">
                    <mxGeometry relative="1" as="geometry">
                        <mxPoint x="309.8958139534884" y="174.81081081081084" as="targetPoint"/>
                        <Array as="points">
                            <mxPoint x="294.0037209302326" y="174.81081081081084"/>
                        </Array>
                    </mxGeometry>
                </mxCell>
                <mxCell id="TXak43xirqwGPLJnymRw-7" value="&lt;span style=&quot;font-size: 14px&quot;&gt;Component&lt;/span&gt;" style="rounded=1;whiteSpace=wrap;html=1;fontSize=18;" parent="TXak43xirqwGPLJnymRw-0" vertex="1">
                    <mxGeometry y="246.3243243243243" width="95.35255813953489" height="47.67567567567568" as="geometry"/>
                </mxCell>
                <mxCell id="TXak43xirqwGPLJnymRw-8" style="edgeStyle=none;html=1;entryX=0.452;entryY=0.019;entryDx=0;entryDy=0;entryPerimeter=0;fontSize=18;" parent="TXak43xirqwGPLJnymRw-0" source="TXak43xirqwGPLJnymRw-3" target="TXak43xirqwGPLJnymRw-7" edge="1">
                    <mxGeometry relative="1" as="geometry">
                        <Array as="points">
                            <mxPoint x="42.908651162790704" y="174.81081081081084"/>
                        </Array>
                    </mxGeometry>
                </mxCell>
                <mxCell id="TXak43xirqwGPLJnymRw-9" value="&lt;font style=&quot;font-size: 14px&quot;&gt;props&lt;/font&gt;" style="text;html=1;strokeColor=none;fillColor=none;align=center;verticalAlign=middle;whiteSpace=wrap;rounded=0;" parent="TXak43xirqwGPLJnymRw-0" vertex="1">
                    <mxGeometry x="170.84" y="103.29729729729729" width="51.6493023255814" height="23.83783783783784" as="geometry"/>
                </mxCell>
                <mxCell id="TXak43xirqwGPLJnymRw-10" value="&lt;font style=&quot;font-size: 14px&quot;&gt;props&lt;/font&gt;" style="text;html=1;strokeColor=none;fillColor=none;align=center;verticalAlign=middle;whiteSpace=wrap;rounded=0;" parent="TXak43xirqwGPLJnymRw-0" vertex="1">
                    <mxGeometry x="234.40837209302327" y="182.75675675675677" width="51.6493023255814" height="23.83783783783784" as="geometry"/>
                </mxCell>
                <mxCell id="TXak43xirqwGPLJnymRw-11" value="&lt;font style=&quot;font-size: 14px&quot;&gt;props&lt;/font&gt;" style="text;html=1;strokeColor=none;fillColor=none;align=center;verticalAlign=middle;whiteSpace=wrap;rounded=0;" parent="TXak43xirqwGPLJnymRw-0" vertex="1">
                    <mxGeometry x="47.676279069767446" y="182.75675675675677" width="51.6493023255814" height="23.83783783783784" as="geometry"/>
                </mxCell>
                <mxCell id="wSnOHmd4NZO43CEivaGH-4" value="Redux" style="rounded=1;whiteSpace=wrap;html=1;fontSize=18;" parent="wSnOHmd4NZO43CEivaGH-1" vertex="1">
                    <mxGeometry x="597.2" y="321.275" width="87.9" height="43.95" as="geometry"/>
                </mxCell>
                <mxCell id="wSnOHmd4NZO43CEivaGH-5" style="edgeStyle=none;html=1;fontSize=18;entryX=0.5;entryY=0;entryDx=0;entryDy=0;" parent="wSnOHmd4NZO43CEivaGH-1" edge="1">
                    <mxGeometry relative="1" as="geometry">
                        <mxPoint x="758.3500000000001" y="467.775" as="targetPoint"/>
                        <mxPoint x="641.15" y="401.85" as="sourcePoint"/>
                        <Array as="points">
                            <mxPoint x="758.35" y="401.85"/>
                        </Array>
                    </mxGeometry>
                </mxCell>
                <mxCell id="wSnOHmd4NZO43CEivaGH-6" style="edgeStyle=none;html=1;entryX=0.452;entryY=0.019;entryDx=0;entryDy=0;entryPerimeter=0;fontSize=18;" parent="wSnOHmd4NZO43CEivaGH-1" target="wSnOHmd4NZO43CEivaGH-9" edge="1">
                    <mxGeometry relative="1" as="geometry">
                        <mxPoint x="648.475" y="401.85" as="sourcePoint"/>
                        <Array as="points">
                            <mxPoint x="519.555" y="401.85"/>
                        </Array>
                    </mxGeometry>
                </mxCell>
                <mxCell id="wSnOHmd4NZO43CEivaGH-7" value="&lt;span style=&quot;font-size: 14px&quot;&gt;Component&lt;/span&gt;" style="rounded=1;whiteSpace=wrap;html=1;fontSize=18;" parent="wSnOHmd4NZO43CEivaGH-1" vertex="1">
                    <mxGeometry x="597.2" y="519.05" width="87.9" height="43.95" as="geometry"/>
                </mxCell>
                <mxCell id="wSnOHmd4NZO43CEivaGH-3" style="edgeStyle=none;html=1;entryX=0.5;entryY=0;entryDx=0;entryDy=0;fontSize=18;" parent="wSnOHmd4NZO43CEivaGH-1" source="wSnOHmd4NZO43CEivaGH-4" target="wSnOHmd4NZO43CEivaGH-7" edge="1">
                    <mxGeometry relative="1" as="geometry"/>
                </mxCell>
                <mxCell id="wSnOHmd4NZO43CEivaGH-9" value="&lt;span style=&quot;font-size: 14px&quot;&gt;Component&lt;/span&gt;" style="rounded=1;whiteSpace=wrap;html=1;fontSize=18;" parent="wSnOHmd4NZO43CEivaGH-1" vertex="1">
                    <mxGeometry x="480" y="467.775" width="87.9" height="43.95" as="geometry"/>
                </mxCell>
            </root>
        </mxGraphModel>
    </diagram>
</mxfile>